# xmcd CD database file
# Copyright (C) 1993-1998 Ti Kan
#
# Track frame offsets:
#	182
#	20100
#	41440
#	61047
#	89772
#	103382
#	123172
#	139385
#	158167
#	176447
#
# Disc length: 2609 seconds
#
# Revision: 1
# Processed by: cddbd v1.4b41PL1 Copyright (c) Steve Scherf et al.
# Submitted via: CDValet v3.31 - Copyright (c) 1997 Greg Leichner
#
DISCID=880a2f0a
DTITLE=Various Artist - huH CD 5
DYEAR=1900
DGENRE=
TTITLE0=Roots Come Down (Roots From The Underground)
TTITLE1=Only If You Want It (Ahmad)
TTITLE2=I Like (Kut Klose)
TTITLE3=When They Gone (Master P)
TTITLE4=Mama Say (Bloodhound-Gang)
TTITLE5=Live Good (Belize)
TTITLE6=Anything For You (Snow)
TTITLE7=Last Days (Kaos)
TTITLE8=4 My Click (Cash Money Click)
TTITLE9=Freak Like Me (remix) (Adina Howard)
EXTD=
EXTT0=
EXTT1=
EXTT2=
EXTT3=
EXTT4=
EXTT5=
EXTT6=
EXTT7=
EXTT8=
EXTT9=
PLAYORDER=
